<svg width="297.057470703125px" height="121.40498046875px" xmlns="http://www.w3.org/2000/svg" viewBox="101.47126464843751 14.297509765625001 297.057470703125 121.40498046875" style="background: rgba(0, 0, 0, 0);" preserveAspectRatio="xMidYMid"><defs><filter id="editing-hole" x="-100%" y="-100%" width="300%" height="300%"><feFlood flood-color="#000" result="black"></feFlood><feMorphology operator="dilate" radius="2" in="SourceGraphic" result="erode"></feMorphology><feGaussianBlur in="erode" stdDeviation="4" result="blur"></feGaussianBlur><feOffset in="blur" dx="2" dy="2" result="offset"></feOffset><feComposite operator="atop" in="offset" in2="black" result="merge"></feComposite><feComposite operator="in" in="merge" in2="SourceGraphic" result="inner-shadow"></feComposite></filter></defs><g filter="url(#editing-hole)"><g transform="translate(148.0799990594387, 98.68000030517578)"><path d="M30.21-33.92L30.21-33.92L30.21-33.92Q25.02-33.92 21.25-35.65L21.25-35.65L19.20-25.28L31.55-25.28L31.55-25.28Q31.55-21.89 29.86-19.74L29.86-19.74L29.86-19.74Q28.16-17.60 25.09-17.60L25.09-17.60L25.09-17.60Q21.76-17.60 18.69-18.82L18.69-18.82L18.69-18.82Q18.05-19.07 17.98-19.14L17.98-19.14L14.34 0L0.38 0L8.51-42.24L37.06-42.24L37.06-42.24Q37.06-38.34 35.23-36.13L35.23-36.13L35.23-36.13Q33.41-33.92 30.21-33.92ZM50.75-3.52L50.75-3.52L50.75-3.52Q48.77 1.28 42.43 1.28L42.43 1.28L42.43 1.28Q39.23 1.28 37.18-0.96L37.18-0.96L37.18-0.96Q35.52-2.82 35.52-4.93L35.52-4.93L35.52-4.93Q35.52-9.73 37.76-20.22L37.76-20.22L42.43-44.80L55.42-46.08L49.22-13.70L49.22-13.70Q48.13-8.96 48.13-7.30L48.13-7.30L48.13-7.30Q48.13-3.65 50.75-3.52ZM82.11-10.82L82.11-10.82L82.11-10.82Q83.71-9.73 83.71-7.33L83.71-7.33L83.71-7.33Q83.71-4.93 82.50-3.39L82.50-3.39L82.50-3.39Q81.28-1.86 79.30-0.83L79.30-0.83L79.30-0.83Q75.20 1.28 70.78 1.28L70.78 1.28L70.78 1.28Q66.37 1.28 63.78 0.32L63.78 0.32L63.78 0.32Q61.18-0.64 59.46-2.43L59.46-2.43L59.46-2.43Q56.06-5.82 56.06-12.03L56.06-12.03L56.06-12.03Q56.06-21.70 61.31-27.58L61.31-27.58L61.31-27.58Q66.94-33.92 76.74-33.92L76.74-33.92L76.74-33.92Q82.82-33.92 85.82-31.36L85.82-31.36L85.82-31.36Q88.06-29.44 88.06-26.30L88.06-26.30L88.06-26.30Q88.06-15.04 68.61-15.04L68.61-15.04L68.61-15.04Q68.35-13.38 68.35-11.97L68.35-11.97L68.35-11.97Q68.35-9.02 69.66-7.90L69.66-7.90L69.66-7.90Q70.98-6.78 73.41-6.78L73.41-6.78L73.41-6.78Q75.84-6.78 78.43-7.90L78.43-7.90L78.43-7.90Q81.02-9.02 82.11-10.82ZM69.06-17.79L69.06-17.79L69.06-17.79Q73.60-17.79 76.22-20.61L76.22-20.61L76.22-20.61Q78.85-23.30 78.85-27.58L78.85-27.58L78.85-27.58Q78.85-29.06 78.30-29.86L78.30-29.86L78.30-29.86Q77.76-30.66 76.67-30.66L76.67-30.66L76.67-30.66Q75.58-30.66 74.66-30.24L74.66-30.24L74.66-30.24Q73.73-29.82 72.77-28.42L72.77-28.42L72.77-28.42Q70.40-25.22 69.06-17.79ZM98.75 0.19L98.75 0.19L98.75 0.19Q96.70 1.28 93.89 1.28L93.89 1.28L93.89 1.28Q91.07 1.28 89.54-0.16L89.54-0.16L89.54-0.16Q88-1.60 88-4.38L88-4.38L88-4.38Q88-7.17 89.95-9.89L89.95-9.89L89.95-9.89Q91.90-12.61 94.82-14.14L94.82-14.14L94.82-14.14Q97.73-15.68 99.78-16.58L99.78-16.58L95.74-25.86L95.74-25.86Q94.66-28.22 92.61-28.22L92.61-28.22L92.10-28.16L91.90-28.16L91.90-28.16Q92.29-30.40 94.91-32.13L94.91-32.13L94.91-32.13Q97.54-33.92 100.54-33.92L100.54-33.92L100.54-33.92Q105.41-33.92 107.65-29.06L107.65-29.06L108.16-28.03L110.91-21.25L110.91-21.25Q112.64-22.02 113.38-23.46L113.38-23.46L113.38-23.46Q114.11-24.90 114.11-27.74L114.11-27.74L114.11-27.74Q114.11-30.59 112.58-32.38L112.58-32.38L112.58-32.38Q115.01-33.92 118.21-33.92L118.21-33.92L118.21-33.92Q123.97-33.92 123.97-28.35L123.97-28.35L123.97-28.35Q123.97-22.27 116.35-18.75L116.35-18.75L112.51-16.96L115.97-8.06L115.97-8.06Q116.99-5.38 118.85-4.22L118.85-4.22L118.85-4.22Q119.62-3.71 120.51-3.65L120.51-3.65L120.51-3.65Q118.59-0.51 114.43 0.90L114.43 0.90L114.43 0.90Q113.15 1.28 111.42 1.28L111.42 1.28L111.42 1.28Q109.70 1.28 107.71 0.10L107.71 0.10L107.71 0.10Q105.73-1.09 105.02-2.94L105.02-2.94L101.50-12.10L101.50-12.10Q97.92-10.50 97.92-4.67L97.92-4.67L97.92-4.67Q97.92-1.98 98.75 0.19ZM153.79 1.28L153.79 1.28L153.79 1.28Q145.60 1.28 144.83-10.37L144.83-10.37L133.82-10.37L133.82-10.37Q132.54-7.42 131.65-4.86L131.65-4.86L129.98 0L121.02 0L141.18-42.24L154.94-42.24L157.63-11.14L157.63-11.14Q158.27-4.42 160.83-2.43L160.83-2.43L160.83-2.43Q158.98 1.28 153.79 1.28ZM139.33-23.17L135.81-15.04L144.64-15.04L143.87-31.49L143.87-33.22L139.33-23.17ZM184.70-33.92L184.70-33.92L184.70-33.92Q187.01-33.92 188.80-33.41L188.80-33.41L188.80-33.41Q188.86-33.66 188.99-34.37L188.99-34.37L189.31-36.35L189.31-36.35Q189.57-37.63 189.95-39.74L189.95-39.74L190.98-44.80L203.71-46.08L196.61-8.96L196.61-8.96Q196.54-8.58 196.54-7.94L196.54-7.94L196.54-6.91L196.54-6.91Q196.54-5.50 197.25-4.45L197.25-4.45L197.25-4.45Q197.95-3.39 199.10-3.39L199.10-3.39L199.10-3.39Q197.82-0.38 193.92 0.90L193.92 0.90L193.92 0.90Q192.58 1.28 190.69 1.28L190.69 1.28L190.69 1.28Q188.80 1.28 187.07 0.29L187.07 0.29L187.07 0.29Q185.34-0.70 184.83-2.37L184.83-2.37L184.83-2.37Q183.81-0.70 181.76 0.29L181.76 0.29L181.76 0.29Q179.71 1.28 176.74 1.28L176.74 1.28L176.74 1.28Q173.76 1.28 171.30 0.51L171.30 0.51L171.30 0.51Q168.83-0.26 167.30-1.92L167.30-1.92L167.30-1.92Q164.48-5.18 164.48-12.61L164.48-12.61L164.48-12.61Q164.48-22.21 170.11-28.03L170.11-28.03L170.11-28.03Q175.74-33.92 184.70-33.92ZM184.26-30.08L184.26-30.08L184.26-30.08Q181.89-30.08 180.61-27.52L180.61-27.52L180.61-27.52Q179.33-24.96 178.02-18.62L178.02-18.62L178.02-18.62Q176.70-12.29 176.70-6.59L176.70-6.59L176.70-6.59Q176.70-2.69 179.01-2.69L179.01-2.69L179.01-2.69Q181.06-2.69 182.50-4.74L182.50-4.74L182.50-4.74Q183.94-6.78 184.51-10.18L184.51-10.18L187.97-28.93L187.97-28.93Q186.62-30.08 184.26-30.08Z" fill="#ccc"></path></g></g><style>text {
  font-size: 64px;
  font-family: Arial Black;
  dominant-baseline: central;
  text-anchor: middle;
}</style></svg>